<mxfile host="app.diagrams.net" agent="Mozilla/5.0 (Windows NT 10.0; Win64; x64) AppleWebKit/537.36 (KHTML, like Gecko) Chrome/131.0.0.0 Safari/537.36" version="25.0.3">
  <diagram name="Pagina-1" id="cdbNOw2lbQMukTKkawVg">
    <mxGraphModel dx="1050" dy="522" grid="1" gridSize="10" guides="1" tooltips="1" connect="1" arrows="1" fold="1" page="1" pageScale="1" pageWidth="827" pageHeight="1169" math="0" shadow="0">
      <root>
        <mxCell id="0" />
        <mxCell id="1" parent="0" />
        <mxCell id="0z88s-x9oSDKPxnHZwtF-8" style="edgeStyle=orthogonalEdgeStyle;rounded=0;orthogonalLoop=1;jettySize=auto;html=1;exitX=0.5;exitY=0.5;exitDx=0;exitDy=0;exitPerimeter=0;entryX=0.5;entryY=1;entryDx=0;entryDy=0;" edge="1" parent="1" source="0z88s-x9oSDKPxnHZwtF-1" target="0z88s-x9oSDKPxnHZwtF-2">
          <mxGeometry relative="1" as="geometry" />
        </mxCell>
        <mxCell id="0z88s-x9oSDKPxnHZwtF-1" value="EveryUser&lt;div&gt;&lt;br&gt;&lt;/div&gt;" style="shape=umlActor;verticalLabelPosition=bottom;verticalAlign=top;html=1;" vertex="1" parent="1">
          <mxGeometry x="40" y="490" width="30" height="60" as="geometry" />
        </mxCell>
        <mxCell id="0z88s-x9oSDKPxnHZwtF-2" value="Landing Homepage" style="ellipse;whiteSpace=wrap;html=1;" vertex="1" parent="1">
          <mxGeometry x="150" y="320" width="140" height="70" as="geometry" />
        </mxCell>
        <mxCell id="0z88s-x9oSDKPxnHZwtF-3" value="Login" style="ellipse;whiteSpace=wrap;html=1;" vertex="1" parent="1">
          <mxGeometry x="344" y="320" width="140" height="70" as="geometry" />
        </mxCell>
        <mxCell id="0z88s-x9oSDKPxnHZwtF-4" value="Registrazione" style="ellipse;whiteSpace=wrap;html=1;" vertex="1" parent="1">
          <mxGeometry x="550" y="320" width="140" height="70" as="geometry" />
        </mxCell>
        <mxCell id="0z88s-x9oSDKPxnHZwtF-5" value="homepage playlist Spotify" style="shape=umlFrame;whiteSpace=wrap;html=1;pointerEvents=0;width=280;height=50;" vertex="1" parent="1">
          <mxGeometry x="130" y="80" width="590" height="490" as="geometry" />
        </mxCell>
        <mxCell id="0z88s-x9oSDKPxnHZwtF-11" value="include" style="html=1;verticalAlign=bottom;endArrow=block;curved=0;rounded=0;" edge="1" parent="1">
          <mxGeometry width="80" relative="1" as="geometry">
            <mxPoint x="290" y="355" as="sourcePoint" />
            <mxPoint x="344" y="354.5" as="targetPoint" />
          </mxGeometry>
        </mxCell>
        <mxCell id="0z88s-x9oSDKPxnHZwtF-12" value="include" style="html=1;verticalAlign=bottom;endArrow=block;curved=0;rounded=0;" edge="1" parent="1">
          <mxGeometry width="80" relative="1" as="geometry">
            <mxPoint x="484" y="355" as="sourcePoint" />
            <mxPoint x="553" y="355" as="targetPoint" />
          </mxGeometry>
        </mxCell>
      </root>
    </mxGraphModel>
  </diagram>
</mxfile>
